<?xml version="1.0" encoding="UTF-8" standalone="no"?>
<!-- Created with Inkscape (http://www.inkscape.org/) -->

<svg
   width="128"
   height="128"
   viewBox="0 0 33.866667 33.866666"
   version="1.1"
   id="svg1"
   inkscape:version="1.3 (0e150ed6c4, 2023-07-21)"
   sodipodi:docname="platform_current.svg"
   xmlns:inkscape="http://www.inkscape.org/namespaces/inkscape"
   xmlns:sodipodi="http://sodipodi.sourceforge.net/DTD/sodipodi-0.dtd"
   xmlns="http://www.w3.org/2000/svg"
   xmlns:svg="http://www.w3.org/2000/svg">
  <sodipodi:namedview
     id="namedview1"
     pagecolor="#ffffff"
     bordercolor="#000000"
     borderopacity="0.25"
     inkscape:showpageshadow="2"
     inkscape:pageopacity="0.0"
     inkscape:pagecheckerboard="0"
     inkscape:deskcolor="#d1d1d1"
     inkscape:document-units="mm"
     inkscape:zoom="9.1667148"
     inkscape:cx="52.145181"
     inkscape:cy="69.217818"
     inkscape:window-width="3840"
     inkscape:window-height="2054"
     inkscape:window-x="-11"
     inkscape:window-y="-11"
     inkscape:window-maximized="1"
     inkscape:current-layer="layer1" />
  <defs
     id="defs1" />
  <g
     inkscape:label="Layer 1"
     inkscape:groupmode="layer"
     id="layer1">
    <path
       id="path2"
       style="display:inline;fill:#ff0000;fill-opacity:1;stroke-width:0.101852"
       d="M 16.933333 0 A 16.933332 16.933332 0 0 0 0 16.933333 A 16.933332 16.933332 0 0 0 16.933333 33.866667 A 16.933332 16.933332 0 0 0 33.866667 16.933333 A 16.933332 16.933332 0 0 0 16.933333 0 z M 16.933333 1.8520833 A 15.08125 15.08125 0 0 1 17.67334 1.8701701 A 15.08125 15.08125 0 0 1 18.411796 1.9249471 A 15.08125 15.08125 0 0 1 19.146118 2.0153809 A 15.08125 15.08125 0 0 1 19.875789 2.1419881 A 15.08125 15.08125 0 0 1 20.597709 2.3042521 A 15.08125 15.08125 0 0 1 21.311361 2.5016561 A 15.08125 15.08125 0 0 1 22.01416 2.7336833 A 15.08125 15.08125 0 0 1 22.704557 2.9998169 A 15.08125 15.08125 0 0 1 23.381519 3.300057 A 15.08125 15.08125 0 0 1 24.04246 3.6328532 A 15.08125 15.08125 0 0 1 24.686865 3.9976888 A 15.08125 15.08125 0 0 1 25.31215 4.3935303 A 15.08125 15.08125 0 0 1 25.917281 4.8198608 A 15.08125 15.08125 0 0 1 26.500708 5.2751302 A 15.08125 15.08125 0 0 1 27.061397 5.7588216 A 15.08125 15.08125 0 0 1 27.597282 6.2693848 A 15.08125 15.08125 0 0 1 28.107845 6.8052694 A 15.08125 15.08125 0 0 1 28.591536 7.3659587 A 15.08125 15.08125 0 0 1 29.046806 7.9493856 A 15.08125 15.08125 0 0 1 29.473136 8.5545166 A 15.08125 15.08125 0 0 1 29.868978 9.1798014 A 15.08125 15.08125 0 0 1 30.233813 9.8242065 A 15.08125 15.08125 0 0 1 30.56661 10.485148 A 15.08125 15.08125 0 0 1 30.866333 11.162109 A 15.08125 15.08125 0 0 1 31.132983 11.852507 A 15.08125 15.08125 0 0 1 31.365011 12.555306 A 15.08125 15.08125 0 0 1 31.562415 13.268958 A 15.08125 15.08125 0 0 1 31.724679 13.990877 A 15.08125 15.08125 0 0 1 31.851286 14.720549 A 15.08125 15.08125 0 0 1 31.94172 15.454871 A 15.08125 15.08125 0 0 1 31.996497 16.193327 A 15.08125 15.08125 0 0 1 32.014583 16.933333 A 15.08125 15.08125 0 0 1 31.861104 19.079456 A 15.08125 15.08125 0 0 1 31.403768 21.18217 A 15.08125 15.08125 0 0 1 30.651876 23.198067 A 15.08125 15.08125 0 0 1 29.620414 25.086841 A 15.08125 15.08125 0 0 1 28.331087 26.809216 A 15.08125 15.08125 0 0 1 26.809216 28.331087 A 15.08125 15.08125 0 0 1 25.086841 29.620414 A 15.08125 15.08125 0 0 1 23.198067 30.651876 A 15.08125 15.08125 0 0 1 21.18217 31.403768 A 15.08125 15.08125 0 0 1 19.079456 31.861104 A 15.08125 15.08125 0 0 1 16.933333 32.014583 A 15.08125 15.08125 0 0 1 14.787211 31.861104 A 15.08125 15.08125 0 0 1 12.684497 31.403768 A 15.08125 15.08125 0 0 1 10.668599 30.651876 A 15.08125 15.08125 0 0 1 8.7798258 29.620414 A 15.08125 15.08125 0 0 1 7.0574504 28.331087 A 15.08125 15.08125 0 0 1 5.5355794 26.809216 A 15.08125 15.08125 0 0 1 4.2462524 25.086841 A 15.08125 15.08125 0 0 1 3.2147909 23.198067 A 15.08125 15.08125 0 0 1 2.4628988 21.18217 A 15.08125 15.08125 0 0 1 2.0055623 19.079456 A 15.08125 15.08125 0 0 1 1.8520833 16.933333 A 15.08125 15.08125 0 0 1 2.0055623 14.787211 A 15.08125 15.08125 0 0 1 2.4628988 12.684497 A 15.08125 15.08125 0 0 1 3.2147909 10.668599 A 15.08125 15.08125 0 0 1 4.2462524 8.7798258 A 15.08125 15.08125 0 0 1 5.5355794 7.0574504 A 15.08125 15.08125 0 0 1 7.0574504 5.5355794 A 15.08125 15.08125 0 0 1 8.7798258 4.2462524 A 15.08125 15.08125 0 0 1 10.668599 3.2147909 A 15.08125 15.08125 0 0 1 12.684497 2.4628988 A 15.08125 15.08125 0 0 1 14.787211 2.0055623 A 15.08125 15.08125 0 0 1 16.933333 1.8520833 z " />
  </g>
</svg>
